<svg
  width="50"
  height="50"
  viewBox="0 0 1346 1356"
  fill="none"
  xmlns="http://www.w3.org/2000/svg"
>
  <path
    d="M1345.51 678.387C1345.51 1052.6 1044.51 1355.96 673.2 1355.96C301.907 1355.96 0.906494 1052.6 0.906494 678.387C0.906494 304.16 301.907 0.800016 673.2 0.800016C1044.51 0.800016 1345.51 304.16 1345.51 678.387Z"
    fill="#716B79"
  />
  <mask
    id="mask0_0_1"
    style="mask-type:luminance"
    maskUnits="userSpaceOnUse"
    x="0"
    y="0"
    width="1346"
    height="1356"
  >
    <path
      d="M1345.51 678.373C1345.51 1052.6 1044.51 1355.96 673.2 1355.96C301.907 1355.96 0.906494 1052.6 0.906494 678.373C0.906494 304.16 301.907 0.800016 673.2 0.800016C1044.51 0.800016 1345.51 304.16 1345.51 678.373Z"
      fill="white"
    />
  </mask>
  <g mask="url(#mask0_0_1)">
    <path
      d="M1102.95 1266.6C1089.79 1272.49 1068.01 1264.92 1059.19 1276.71C1052.4 1271.55 1041.33 1273.99 1036.04 1282.17C1002.71 1273.76 975.253 1350.12 865.28 1297.11C865.28 1297.11 864.813 1386.09 865.653 1386.09C866.493 1386.09 938.013 1393.24 938.013 1393.24L1095.37 1318.77L1102.95 1266.6Z"
      fill="#FEDA97"
    />
    <path
      d="M847.027 1397.08C941.293 1492.99 1169.12 1393.28 1102.85 1266.6C1099.39 1287.71 1088.45 1304.16 1072.56 1317.52C1047.32 1316.91 1006.93 1358.56 982.947 1354.12L989.68 1361.27C979.253 1369.11 966.52 1371.23 950.973 1366.32L959.387 1378.95C945.68 1377.04 929.4 1374.48 911.947 1374.03L917.733 1382.73L862.613 1380.63L847.027 1397.08Z"
      fill="#FCBD7A"
    />
    <path
      d="M523.307 929.787C439.68 989.64 365.28 1161.52 361.413 1287.04C360.973 1301.55 369.6 1314.93 383.093 1320.27C404.106 1328.56 433.746 1326.61 441.426 1310.32L549.8 940.147L523.307 929.787Z"
      fill="#FCBD7A"
    />
    <path
      d="M818.987 929.787C902.613 989.64 977.013 1161.52 980.866 1287.04C981.32 1301.55 972.693 1314.93 959.2 1320.27C938.186 1328.56 908.533 1326.61 900.866 1310.32L792.48 940.147L818.987 929.787Z"
      fill="#FCBD7A"
    />
    <path
      d="M817.747 923.107H527.44C419.773 1043.68 428.467 1365.17 479.253 1505.81C482.267 1514.17 488.133 1521.21 495.867 1525.61C543.627 1552.77 654.067 1551.85 672.587 1508.76C691.12 1551.85 801.56 1552.77 849.32 1525.61C857.053 1521.21 862.907 1514.17 865.933 1505.81C916.72 1365.17 925.4 1043.68 817.747 923.107Z"
      fill="#FCBD7A"
    />
    <path
      d="M847.4 1160.39C847.4 1275.41 769.133 1368.65 672.587 1368.65C576.04 1368.65 497.773 1275.41 497.773 1160.39C497.773 1045.37 576.04 952.133 672.587 952.133C769.133 952.133 847.4 1045.37 847.4 1160.39Z"
      fill="#FFD998"
    />
    <path
      d="M1059.2 441.24C984.693 313.813 858.68 272.68 675.053 266.347V266.333L674.813 266.347L674.573 266.333V266.347C490.947 272.68 364.933 313.813 290.426 441.24C257.6 497.373 254.067 565.6 280.773 624.787C374.52 832.56 524.653 981.027 674.813 973.133C824.973 981.027 975.107 832.56 1068.85 624.787C1095.56 565.6 1092.03 497.373 1059.2 441.24Z"
      fill="#FCBD7A"
    />
    <path
      d="M926.013 550.36C946.093 627.72 921.466 705.4 876.16 717.147C830.853 728.907 777.853 675.72 757.787 598.36C737.72 521 758.173 448.76 803.48 437C848.787 425.253 905.947 473 926.013 550.36Z"
      fill="#B78054"
    />
    <path
      d="M538.4 573.627C538.4 595.96 525.253 614.067 509.04 614.067C492.827 614.067 479.68 595.96 479.68 573.627C479.68 551.293 492.827 533.187 509.04 533.187C525.253 533.187 538.4 551.293 538.4 573.627Z"
      fill="#603912"
    />
    <path
      d="M512.907 557.627C512.907 562.973 508.573 567.293 503.24 567.293C497.893 567.293 493.56 562.973 493.56 557.627C493.56 552.293 497.893 547.96 503.24 547.96C508.573 547.96 512.907 552.293 512.907 557.627Z"
      fill="white"
    />
    <path
      d="M870.987 573.627C870.987 595.96 857.84 614.067 841.626 614.067C825.413 614.067 812.267 595.96 812.267 573.627C812.267 551.293 825.413 533.187 841.626 533.187C857.84 533.187 870.987 551.293 870.987 573.627Z"
      fill="#603912"
    />
    <path
      d="M845.493 557.627C845.493 562.973 841.173 567.293 835.826 567.293C830.493 567.293 826.16 562.973 826.16 557.627C826.16 552.293 830.493 547.96 835.826 547.96C841.173 547.96 845.493 552.293 845.493 557.627Z"
      fill="white"
    />
    <path
      d="M662.2 837.28C660.613 837.28 659.32 835.987 659.32 834.387V696.493C659.32 694.893 660.613 693.6 662.2 693.6C663.8 693.6 665.093 694.893 665.093 696.493V834.387C665.093 835.987 663.8 837.28 662.2 837.28Z"
      fill="#603913"
    />
    <path
      d="M632.44 856.907C630.893 856.907 629.333 856.787 627.76 856.56C612.093 854.24 595.867 839.787 596.64 817.573C596.693 815.987 598.027 814.72 599.627 814.787C601.213 814.84 602.467 816.187 602.413 817.773C601.747 836.64 615.413 848.893 628.6 850.84C639.827 852.507 653.747 847.013 659.16 826.6C659.56 825.053 661.147 824.147 662.68 824.547C664.227 824.96 665.147 826.533 664.733 828.08C661.973 838.493 656.8 846.587 649.76 851.52C644.693 855.053 638.68 856.907 632.44 856.907Z"
      fill="#603913"
    />
    <path
      d="M691.707 856.907C685.467 856.907 679.453 855.053 674.4 851.52C667.347 846.587 662.173 838.493 659.413 828.08C659.013 826.533 659.92 824.96 661.467 824.547C663 824.147 664.587 825.053 665 826.6C670.4 847 684.32 852.507 695.547 850.84C708.733 848.893 722.4 836.64 721.747 817.773C721.693 816.187 722.933 814.84 724.533 814.787C726.12 814.733 727.453 815.987 727.507 817.573C728.28 839.787 712.053 854.24 696.387 856.56C694.827 856.787 693.253 856.907 691.707 856.907Z"
      fill="#603913"
    />
    <path
      d="M748.453 698.333C735.613 677.373 701.28 673.093 662.013 673.293C622.747 673.493 588.467 678.133 575.84 699.24C572.333 705.107 572.013 712.347 574.92 718.533C583.507 736.707 598.587 750.107 620.267 770.693C626.68 776.787 634.067 781.8 642.213 785.253C649.2 788.227 656.013 789.827 662.627 789.693C669.24 789.747 676.04 788.08 682.987 785.04C691.093 781.493 698.44 776.413 704.787 770.253C726.24 749.44 741.187 735.893 749.573 717.613C752.427 711.413 752.027 704.16 748.453 698.333Z"
      fill="#613811"
    />
    <path
      d="M669.826 701.227C672.28 710.667 658.12 722.507 638.213 727.667C618.306 732.827 600.173 729.36 597.733 719.92C595.28 710.48 609.426 698.64 629.346 693.48C649.253 688.32 667.373 691.773 669.826 701.227Z"
      fill="#8E6534"
    />
    <path
      d="M765.267 365.947C762.427 375.333 747.84 379.213 732.693 374.627C717.533 370.053 707.56 358.72 710.4 349.347C713.24 339.96 727.827 336.08 742.973 340.667C758.12 345.253 768.107 356.573 765.267 365.947Z"
      fill="#FEDC99"
    />
    <path
      d="M697.613 351.08C697.907 360.88 667.04 369.747 628.667 370.893C590.307 372.04 558.96 365.027 558.667 355.227C558.373 345.44 589.24 336.56 627.613 335.427C665.987 334.28 697.32 341.293 697.613 351.08Z"
      fill="#FEDC99"
    />
    <path
      d="M842.72 462.293C839.453 465.147 840.96 472.213 846.08 478.08C851.2 483.946 857.987 486.4 861.253 483.56C864.52 480.72 863.013 473.653 857.893 467.773C852.773 461.906 845.987 459.453 842.72 462.293Z"
      fill="#C8905F"
    />
    <path
      d="M863.427 489.827C859.587 491.947 863.2 505.867 871.507 520.92C879.8 535.973 889.627 546.467 893.467 544.347C897.307 542.24 893.693 528.32 885.387 513.267C877.093 498.213 867.267 487.72 863.427 489.827Z"
      fill="#C8905F"
    />
    <path
      d="M1068.85 580.52C975.107 788.293 824.973 936.76 674.813 928.853C524.653 936.76 374.52 788.293 280.773 580.52C272.16 561.44 266.707 541.413 264.36 521.147C260.213 556.693 265.613 593.187 280.773 626.773C374.52 834.547 524.653 983.013 674.813 975.107C824.973 983.013 975.107 834.547 1068.85 626.773C1084 593.187 1089.41 556.693 1085.27 521.147C1082.91 541.413 1077.47 561.44 1068.85 580.52Z"
      fill="#EFAA6C"
    />
    <path
      d="M357.373 340.747C420.88 362.56 354.8 469.68 352.24 551.147C355.867 735.6 416.507 967.92 291.24 1013.28C270.613 1020.76 247.733 1017.77 229.853 1005.05C168.08 961.08 93.5466 825.907 70.8667 734.787C61.1867 695.893 67.1733 654.627 88.04 620.413C127.787 555.267 184.853 548.587 229.08 485.72C280.627 412.427 303.493 324.707 357.373 340.747Z"
      fill="#AE7349"
    />
    <path
      d="M365.72 344.693C381.28 371.333 333.2 475.627 310.88 576.56C307.373 592.413 306.147 608.68 307.267 624.88C313.28 711.507 335.813 826.147 284.267 869.933C272.667 879.8 257.693 884.867 242.533 883.427C176.333 877.107 95.5601 774.027 71.1868 690.107C65.7468 671.4 68.1468 651.32 77.9201 634.467C111.08 577.307 194.947 529.373 233.387 478.667C281.907 396.573 312.933 321.827 365.72 344.693Z"
      fill="#B78054"
    />
    <path
      d="M234.32 531.987C239.96 538.653 234.8 552.293 222.786 562.44C210.773 572.6 196.466 575.413 190.826 568.733C185.186 562.067 190.346 548.427 202.36 538.28C214.36 528.12 228.666 525.307 234.32 531.987Z"
      fill="#C8905F"
    />
    <path
      d="M184.574 580.587C191.587 585.987 180.107 612.64 158.96 640.147C137.8 667.64 114.96 685.573 107.96 680.173C100.947 674.787 112.413 648.12 133.573 620.613C154.733 593.12 177.574 575.2 184.574 580.587Z"
      fill="#C8905F"
    />
    <path
      d="M976.36 340.747C912.853 362.56 978.92 469.68 981.493 551.147C977.866 735.6 917.226 967.92 1042.49 1013.28C1063.12 1020.76 1086 1017.77 1103.88 1005.05C1165.64 961.08 1240.19 825.907 1262.87 734.787C1272.55 695.893 1266.56 654.627 1245.68 620.413C1205.93 555.267 1148.88 548.587 1104.65 485.72C1053.11 412.427 1030.24 324.707 976.36 340.747Z"
      fill="#AE7349"
    />
    <path
      d="M968 344.693C952.44 371.333 1000.53 475.627 1022.85 576.56C1026.36 592.413 1027.59 608.68 1026.47 624.88C1020.45 711.507 997.907 826.147 1049.45 869.933C1061.07 879.8 1076.03 884.867 1091.2 883.427C1157.4 877.107 1238.17 774.027 1262.55 690.107C1267.97 671.4 1265.57 651.32 1255.8 634.467C1222.65 577.307 1138.79 529.373 1100.35 478.667C1051.83 396.573 1020.8 321.827 968 344.693Z"
      fill="#B78054"
    />
    <path
      d="M1099.41 531.987C1093.77 538.653 1098.93 552.293 1110.95 562.44C1122.95 572.6 1137.27 575.413 1142.91 568.733C1148.55 562.067 1143.39 548.427 1131.37 538.28C1119.36 528.12 1105.05 525.307 1099.41 531.987Z"
      fill="#C8905F"
    />
    <path
      d="M1149.16 580.587C1142.15 585.987 1153.61 612.64 1174.77 640.147C1195.93 667.64 1218.76 685.573 1225.77 680.173C1232.77 674.787 1221.31 648.12 1200.15 620.613C1179 593.12 1156.16 575.2 1149.16 580.587Z"
      fill="#C8905F"
    />
  </g>
</svg>