<svg
  width="50"
  height="50"
  viewBox="0 0 1345 1356"
  fill="none"
  xmlns="http://www.w3.org/2000/svg"
>
  <path
    d="M1344.68 677.747C1344.68 1051.97 1043.68 1355.33 672.374 1355.33C301.08 1355.33 0.0800781 1051.97 0.0800781 677.747C0.0800781 303.533 301.08 0.159912 672.374 0.159912C1043.68 0.159912 1344.68 303.533 1344.68 677.747Z"
    fill="#EC766A"
  />
  <mask
    id="mask0_0_1"
    style="mask-type:luminance"
    maskUnits="userSpaceOnUse"
    x="0"
    y="0"
    width="1345"
    height="1356"
  >
    <path
      d="M1344.68 677.747C1344.68 1051.97 1043.68 1355.33 672.374 1355.33C301.08 1355.33 0.0800781 1051.97 0.0800781 677.747C0.0800781 303.533 301.08 0.159912 672.374 0.159912C1043.68 0.159912 1344.68 303.533 1344.68 677.747Z"
      fill="white"
    />
  </mask>
  <g mask="url(#mask0_0_1)">
    <path
      d="M505.693 1350.83C401.506 1335.6 305.36 1337.33 231.533 1397.35C231.533 1397.35 209.467 1421.07 210.733 1422.97C212.013 1424.88 321.44 1490.43 321.44 1490.43C354.827 1456.99 456.106 1458.57 505.693 1439.19V1350.83Z"
      fill="#FA9A22"
    />
    <path
      d="M527.72 984.534C443.48 1044.81 368.546 1217.95 364.666 1344.39C364.213 1358.99 372.906 1372.47 386.493 1377.84C407.666 1386.2 437.52 1384.24 445.24 1367.83L554.413 994.96L527.72 984.534Z"
      fill="#FA9A22"
    />
    <path
      d="M825.547 984.534C909.773 1044.81 984.707 1217.95 988.6 1344.39C989.053 1358.99 980.36 1372.47 966.773 1377.84C945.6 1386.2 915.746 1384.24 908.026 1367.83L798.853 994.96L825.547 984.534Z"
      fill="#FA9A22"
    />
    <path
      d="M824.293 977.8H531.88C423.44 1099.25 432.187 1423.08 483.347 1564.73C486.387 1573.16 492.293 1580.24 500.08 1584.68C548.187 1612.04 659.427 1611.11 678.093 1567.69C696.747 1611.11 807.987 1612.04 856.093 1584.68C863.88 1580.24 869.786 1573.16 872.827 1564.73C923.987 1423.08 932.733 1099.25 824.293 977.8Z"
      fill="#FA9A22"
    />
    <path
      d="M854.173 1216.81C854.173 1332.67 775.333 1426.59 678.093 1426.59C580.84 1426.59 502.013 1332.67 502.013 1216.81C502.013 1100.96 580.84 1007.04 678.093 1007.04C775.333 1007.04 854.173 1100.96 854.173 1216.81Z"
      fill="#FFF8A7"
    />
    <path
      d="M309.2 609.4C267.973 519.04 218.68 392.56 247.92 294.654C252.893 277.974 267.626 266.094 284.986 264.854C413.906 255.614 554.44 369.293 554.44 369.293L309.2 609.4Z"
      fill="#FA9A22"
    />
    <path
      d="M365.88 553.693C343.853 505.413 317.52 437.853 333.133 385.547C335.8 376.64 343.666 370.293 352.946 369.627C421.813 364.693 496.88 425.413 496.88 425.413L365.88 553.693Z"
      fill="#9B5809"
    />
    <path
      d="M287.413 291.667C292.493 295.293 291.867 304.88 286.027 313.093C280.173 321.293 271.32 325.013 266.24 321.4C261.16 317.773 261.773 308.187 267.627 299.973C273.467 291.773 282.333 288.053 287.413 291.667Z"
      fill="#FCB741"
    />
    <path
      d="M269.026 337.32C275.253 337.027 281.226 356.587 282.36 381C283.506 405.413 279.373 425.427 273.133 425.72C266.906 426.013 260.933 406.453 259.8 382.053C258.653 357.64 262.786 337.613 269.026 337.32Z"
      fill="#FCB741"
    />
    <path
      d="M337.653 377.307C345.88 438.08 366.093 486.254 396.76 523.454L365.88 553.693C332.267 477.48 317.293 414.68 337.653 377.307Z"
      fill="#894903"
    />
    <path
      d="M1048.37 609.4C1089.59 519.04 1138.88 392.56 1109.65 294.654C1104.67 277.974 1089.93 266.094 1072.57 264.854C943.667 255.614 803.133 369.293 803.133 369.293L1048.37 609.4Z"
      fill="#FA9A22"
    />
    <path
      d="M991.693 553.693C1013.72 505.413 1040.05 437.853 1024.43 385.547C1021.77 376.64 1013.89 370.293 1004.63 369.627C935.76 364.693 860.68 425.413 860.68 425.413L991.693 553.693Z"
      fill="#9B5809"
    />
    <path
      d="M1070.16 291.667C1065.08 295.293 1065.69 304.88 1071.55 313.093C1077.39 321.293 1086.25 325.013 1091.33 321.4C1096.41 317.773 1095.79 308.187 1089.95 299.973C1084.11 291.773 1075.24 288.053 1070.16 291.667Z"
      fill="#FCB741"
    />
    <path
      d="M1088.55 337.32C1082.31 337.027 1076.33 356.587 1075.2 381C1074.07 405.413 1078.2 425.427 1084.43 425.72C1090.67 426.013 1096.64 406.453 1097.77 382.053C1098.91 357.64 1094.77 337.613 1088.55 337.32Z"
      fill="#FCB741"
    />
    <path
      d="M1019.92 377.307C1011.69 438.08 991.48 486.254 960.813 523.454L991.693 553.693C1025.29 477.48 1040.28 414.68 1019.92 377.307Z"
      fill="#894903"
    />
    <path
      d="M1177.64 737.147C1014.29 706.4 1045.79 326.533 677.947 333.493C310.094 326.533 341.6 706.4 178.24 737.147C192.027 753.027 207.827 763.747 226.4 767.24C214.747 777.173 200.934 783.347 185.32 786.4C196.454 800.147 211.694 809.12 230.654 813.76C267.067 916.627 532.747 1002.09 677.947 998.387C823.134 1002.09 1088.81 916.627 1125.23 813.76C1144.2 809.12 1159.43 800.147 1170.56 786.4C1154.95 783.347 1141.13 777.173 1129.48 767.24C1148.05 763.747 1163.85 753.027 1177.64 737.147Z"
      fill="#FFF8A7"
    />
    <path
      d="M678.04 333.48C311.56 327.347 351.48 635.027 221.107 717.08C258.96 727.107 268.213 704.52 379.36 584.813C459.4 498.627 665.44 516.853 654.373 774.16H677.453H678.626H701.707C690.627 516.853 896.68 498.627 976.707 584.813C1087.87 704.52 1097.12 727.107 1134.97 717.08C1004.6 635.027 1044.52 327.347 678.04 333.48Z"
      fill="#FA9A22"
    />
    <path
      d="M678.626 876.32C676.986 876.32 675.667 875 675.667 873.36V770.88C675.667 769.24 676.986 767.92 678.626 767.92C680.266 767.92 681.586 769.24 681.586 770.88V873.36C681.586 875 680.266 876.32 678.626 876.32Z"
      fill="#603913"
    />
    <path
      d="M656.36 890.893C655.173 890.893 654.026 890.814 652.906 890.64C640.92 888.867 628.493 877.827 629.08 860.84C629.133 859.2 630.506 857.907 632.146 857.974C633.773 858.04 635.053 859.414 635 861.04C634.533 874.587 644.32 883.387 653.773 884.787C661.773 885.96 671.693 882.013 675.56 867.36C675.986 865.787 677.613 864.84 679.186 865.253C680.773 865.68 681.72 867.293 681.293 868.88C676.96 885.28 665.826 890.893 656.36 890.893Z"
      fill="#603913"
    />
    <path
      d="M700.707 890.893C691.227 890.893 680.107 885.28 675.76 868.88C675.347 867.293 676.28 865.68 677.867 865.253C679.453 864.84 681.067 865.787 681.493 867.36C685.36 882.013 695.294 885.973 703.28 884.787C712.734 883.387 722.52 874.587 722.053 861.04C722 859.414 723.28 858.04 724.907 857.974C726.56 857.92 727.92 859.2 727.973 860.84C728.56 877.827 716.147 888.867 704.147 890.64C703.04 890.814 701.88 890.893 700.707 890.893Z"
      fill="#603913"
    />
    <path
      d="M742.72 772.254C733.186 756.667 707.667 753.494 678.48 753.64C649.307 753.787 623.827 757.24 614.44 772.92C611.84 777.28 611.6 782.667 613.76 787.254C620.133 800.774 631.346 810.72 647.453 826.027C652.226 830.547 657.72 834.28 663.773 836.854C668.96 839.054 674.027 840.24 678.933 840.147C683.853 840.187 688.907 838.947 694.067 836.693C700.093 834.053 705.547 830.267 710.267 825.693C726.213 810.227 737.32 800.16 743.56 786.574C745.68 781.96 745.373 776.587 742.72 772.254Z"
      fill="#613811"
    />
    <path
      d="M684.293 774.4C686.106 781.413 675.586 790.213 660.786 794.053C645.999 797.893 632.533 795.306 630.706 788.293C628.893 781.28 639.4 772.48 654.2 768.64C669 764.8 682.466 767.373 684.293 774.4Z"
      fill="#8E6534"
    />
    <path
      d="M578.826 724.427C578.826 745.307 566.546 762.227 551.386 762.227C536.226 762.227 523.933 745.307 523.933 724.427C523.933 703.547 536.226 686.627 551.386 686.627C566.546 686.627 578.826 703.547 578.826 724.427Z"
      fill="#603912"
    />
    <path
      d="M555 709.467C555 714.453 550.946 718.507 545.96 718.507C540.96 718.507 536.92 714.453 536.92 709.467C536.92 704.48 540.96 700.427 545.96 700.427C550.946 700.427 555 704.48 555 709.467Z"
      fill="white"
    />
    <path
      d="M830.573 724.427C830.573 745.307 818.293 762.227 803.133 762.227C787.973 762.227 775.68 745.307 775.68 724.427C775.68 703.547 787.973 686.627 803.133 686.627C818.293 686.627 830.573 703.547 830.573 724.427Z"
      fill="#603912"
    />
    <path
      d="M806.747 709.467C806.747 714.453 802.707 718.507 797.707 718.507C792.72 718.507 788.667 714.453 788.667 709.467C788.667 704.48 792.72 700.427 797.707 700.427C802.707 700.427 806.747 704.48 806.747 709.467Z"
      fill="white"
    />
    <path
      d="M581.707 378.36C584.48 386.227 576.4 396.253 563.68 400.72C550.96 405.2 538.4 402.44 535.626 394.56C532.853 386.68 540.92 376.667 553.653 372.2C566.373 367.72 578.933 370.48 581.707 378.36Z"
      fill="#FCB741"
    />
    <path
      d="M523.173 407.4C527.8 414.347 509.507 434.707 482.307 452.867C455.093 471.013 429.28 480.107 424.653 473.16C420.013 466.213 438.307 445.867 465.52 427.707C492.72 409.547 518.533 400.453 523.173 407.4Z"
      fill="#FCB741"
    />
  </g>
</svg>