<svg
  width="50"
  height="50"
  viewBox="0 0 1348 1356"
  fill="none"
  xmlns="http://www.w3.org/2000/svg"
>
  <path
    d="M1345.4 678.387C1345.4 1052.6 1044.41 1355.96 673.107 1355.96C301.807 1355.96 0.808105 1052.6 0.808105 678.387C0.808105 304.16 301.807 0.800049 673.107 0.800049C1044.41 0.800049 1345.4 304.16 1345.4 678.387Z"
    fill="#FB997E"
  />
  <mask
    id="mask0_0_1"
    style="mask-type:luminance"
    maskUnits="userSpaceOnUse"
    x="2"
    y="0"
    width="1346"
    height="1356"
  >
    <path
      d="M1347.45 678.373C1347.45 1052.6 1046.45 1355.96 675.155 1355.96C303.853 1355.96 2.85474 1052.6 2.85474 678.373C2.85474 304.16 303.853 0.800049 675.155 0.800049C1046.45 0.800049 1347.45 304.16 1347.45 678.373Z"
      fill="white"
    />
  </mask>
  <g mask="url(#mask0_0_1)">
    <path
      d="M524.311 1011.19C439.26 1072.05 363.599 1246.87 359.669 1374.53C359.216 1389.28 367.992 1402.89 381.715 1408.31C403.087 1416.75 433.237 1414.77 441.035 1398.2L551.267 1021.72L524.311 1011.19Z"
      fill="#918078"
    />
    <path
      d="M825.033 1011.19C910.084 1072.05 985.747 1246.87 989.675 1374.53C990.128 1389.28 981.352 1402.89 967.629 1408.31C946.257 1416.75 916.108 1414.77 908.309 1398.2L798.079 1021.72L825.033 1011.19Z"
      fill="#918078"
    />
    <path
      d="M823.766 1004.39H528.517C419.021 1127.03 427.855 1454 479.505 1597.01C482.579 1605.53 488.541 1612.68 496.407 1617.16C544.976 1644.79 657.303 1643.85 676.141 1600.01C694.981 1643.85 807.307 1644.79 855.876 1617.16C863.742 1612.68 869.705 1605.53 872.777 1597.01C924.428 1454 933.263 1127.03 823.766 1004.39Z"
      fill="#918078"
    />
    <path
      d="M853.932 1245.72C853.932 1362.69 774.333 1457.53 676.142 1457.53C577.951 1457.53 498.351 1362.69 498.351 1245.72C498.351 1128.75 577.951 1033.91 676.142 1033.91C774.333 1033.91 853.932 1128.75 853.932 1245.72Z"
      fill="#A0998F"
    />
    <path
      d="M254.115 630.093C20.9108 396.893 383.811 62.1733 592.949 358.48C683.488 468.227 362.388 726.653 254.115 630.093Z"
      fill="#918078"
    />
    <path
      d="M322.076 543.907C201.164 422.987 389.322 249.44 497.755 403.08C544.698 459.973 378.214 593.96 322.076 543.907Z"
      fill="#E7737E"
    />
    <path
      d="M318.525 298.627C320.4 304.24 314.559 311.253 305.479 314.28C296.399 317.32 287.519 315.213 285.643 309.587C283.768 303.973 289.609 296.96 298.689 293.933C307.769 290.893 316.649 293 318.525 298.627Z"
      fill="#A89792"
    />
    <path
      d="M278.871 323.373C283.816 326.64 277.461 344.987 264.676 364.36C251.891 383.733 237.517 396.8 232.571 393.533C227.624 390.267 233.979 371.92 246.764 352.546C259.551 333.173 273.924 320.106 278.871 323.373Z"
      fill="#A89792"
    />
    <path
      d="M1072.49 630.093C1305.69 396.893 942.799 62.1733 733.661 358.48C643.121 468.227 964.223 726.653 1072.49 630.093Z"
      fill="#918078"
    />
    <path
      d="M1004.53 543.907C1125.44 422.987 937.288 249.44 828.855 403.08C781.912 459.973 948.396 593.96 1004.53 543.907Z"
      fill="#E7737E"
    />
    <path
      d="M1008.08 298.627C1006.21 304.24 1012.05 311.253 1021.13 314.28C1030.21 317.32 1039.09 315.213 1040.97 309.587C1042.84 303.973 1037 296.96 1027.92 293.933C1018.84 290.893 1009.96 293 1008.08 298.627Z"
      fill="#A89792"
    />
    <path
      d="M1047.73 323.373C1042.79 326.64 1049.15 344.987 1061.93 364.36C1074.72 383.733 1089.09 396.8 1094.04 393.533C1098.99 390.267 1092.63 371.92 1079.84 352.546C1067.05 333.173 1052.68 320.106 1047.73 323.373Z"
      fill="#A89792"
    />
    <path
      d="M1059.28 780C998.127 566.92 863.911 399.32 668.852 405.72C473.794 399.32 339.578 566.92 278.43 780C250.747 928.493 444.856 1027.19 665.189 1029.33V1029.37C666.412 1029.37 667.632 1029.36 668.852 1029.36C670.072 1029.36 671.293 1029.37 672.515 1029.37V1029.33C892.848 1027.19 1086.96 928.493 1059.28 780Z"
      fill="#918078"
    />
    <path
      d="M672.515 990.293V990.333C671.293 990.333 670.072 990.32 668.852 990.32C667.632 990.32 666.412 990.333 665.191 990.333V990.293C469.197 988.386 293.959 910.08 277.116 788.28C258.035 932.16 448.981 1027.23 665.191 1029.33V1029.37C666.412 1029.37 667.632 1029.36 668.852 1029.36C670.072 1029.36 671.293 1029.37 672.515 1029.37V1029.33C888.723 1027.23 1079.67 932.16 1060.59 788.28C1043.75 910.08 868.507 988.386 672.515 990.293Z"
      fill="#87756E"
    />
    <path
      d="M665.137 961.6C663.541 961.6 662.25 960.307 662.25 958.707V855.267C662.25 853.667 663.541 852.373 665.137 852.373C666.732 852.373 668.025 853.667 668.025 855.267V958.707C668.025 960.307 666.732 961.6 665.137 961.6Z"
      fill="#414042"
    />
    <path
      d="M642.657 976.307C641.471 976.307 640.312 976.213 639.193 976.053C627.135 974.267 614.637 963.147 615.231 946.067C615.287 944.467 616.619 943.227 618.219 943.28C619.812 943.333 621.059 944.667 621.004 946.267C620.528 960 630.455 968.92 640.037 970.333C648.149 971.533 658.219 967.52 662.148 952.68C662.556 951.133 664.139 950.213 665.68 950.627C667.223 951.027 668.141 952.613 667.733 954.16C663.367 970.653 652.181 976.307 642.657 976.307Z"
      fill="#414042"
    />
    <path
      d="M687.42 976.307C677.896 976.307 666.711 970.653 662.344 954.16C661.936 952.613 662.856 951.027 664.397 950.627C665.939 950.213 667.521 951.133 667.929 952.68C671.859 967.52 681.923 971.533 690.039 970.333C699.623 968.92 709.551 960 709.073 946.267C709.019 944.667 710.265 943.333 711.86 943.28C713.453 943.227 714.791 944.467 714.847 946.067C715.44 963.16 702.944 974.267 690.884 976.053C689.765 976.213 688.605 976.307 687.42 976.307Z"
      fill="#414042"
    />
    <path
      d="M556.728 664.693C556.728 684.707 544.947 700.933 530.415 700.933C515.881 700.933 504.101 684.707 504.101 664.693C504.101 644.68 515.881 628.453 530.415 628.453C544.947 628.453 556.728 644.68 556.728 664.693Z"
      fill="#414042"
    />
    <path
      d="M533.881 650.36C533.881 655.147 530.001 659.027 525.215 659.027C520.428 659.027 516.549 655.147 516.549 650.36C516.549 645.573 520.428 641.693 525.215 641.693C530.001 641.693 533.881 645.573 533.881 650.36Z"
      fill="white"
    />
    <path
      d="M835.52 664.693C835.52 684.707 823.739 700.933 809.207 700.933C794.673 700.933 782.892 684.707 782.892 664.693C782.892 644.68 794.673 628.453 809.207 628.453C823.739 628.453 835.52 644.68 835.52 664.693Z"
      fill="#414042"
    />
    <path
      d="M812.672 650.36C812.672 655.147 808.793 659.027 804.007 659.027C799.22 659.027 795.34 655.147 795.34 650.36C795.34 645.573 799.22 641.693 804.007 641.693C808.793 641.693 812.672 645.573 812.672 650.36Z"
      fill="white"
    />
    <path
      d="M665.524 784.187C574.027 774.667 537.013 809.093 544.935 879.773C560.747 941.786 633.307 950.533 665.524 900.146C697.741 950.533 770.301 941.786 786.112 879.773C794.033 809.093 757.021 774.667 665.524 784.187Z"
      fill="#A0998F"
    />
    <path
      d="M734.594 758.533C724.332 741.773 696.894 738.347 665.51 738.52C634.126 738.68 606.724 742.387 596.639 759.253C593.838 763.947 593.575 769.733 595.904 774.667C602.762 789.2 614.819 799.907 632.138 816.36C637.264 821.227 643.175 825.24 649.683 828C655.262 830.373 660.711 831.653 665.996 831.547C671.283 831.6 676.718 830.267 682.272 827.827C688.75 825 694.619 820.933 699.694 816.013C716.84 799.373 728.784 788.547 735.49 773.947C737.767 768.987 737.444 763.187 734.594 758.533Z"
      fill="#E7737E"
    />
    <path
      d="M671.749 760.84C673.707 768.387 662.395 777.84 646.483 781.973C630.572 786.107 616.085 783.333 614.128 775.787C612.171 768.24 623.483 758.773 639.395 754.653C655.307 750.52 669.792 753.293 671.749 760.84Z"
      fill="#EA8D7E"
    />
    <path
      d="M588.887 842.267C560.319 838.08 531.505 835.453 502.631 834.973C473.76 834.48 444.836 836.227 416.248 840.453C387.659 844.667 359.429 851.373 331.936 860.387C304.435 869.387 277.679 880.667 251.796 893.68C277.484 880.293 304.096 868.6 331.528 859.173C358.951 849.733 387.187 842.573 415.855 837.92C444.523 833.253 473.6 831.053 502.664 831.12C531.735 831.173 560.781 833.387 589.595 837.173C591.001 837.36 591.991 838.653 591.806 840.053C591.621 841.467 590.332 842.453 588.925 842.267H588.887Z"
      fill="#414042"
    />
    <path
      d="M608.897 872.587C580.032 868.36 550.696 867.24 521.522 868.973C492.344 870.707 463.315 875.28 434.953 882.52C406.596 889.773 378.892 899.707 352.437 912.333C325.993 924.96 300.778 940.28 277.698 958.44C300.511 939.947 325.541 924.227 351.876 911.173C378.223 898.133 405.895 887.747 434.3 880.04C462.708 872.333 491.867 867.307 521.267 865.133C550.663 862.96 580.315 863.653 609.607 867.507C611.012 867.693 612.001 868.973 611.817 870.387C611.632 871.787 610.343 872.773 608.936 872.6L608.897 872.587Z"
      fill="#414042"
    />
    <path
      d="M594.284 904.707C564.806 904.027 535.243 906.493 506.184 911.8C477.116 917.093 448.562 925.293 421.003 936.053C393.452 946.827 366.863 960.173 341.955 976.213C329.51 984.24 317.476 992.933 306.1 1002.43C294.72 1011.92 283.947 1022.16 274.102 1033.27C283.786 1022.03 294.422 1011.61 305.687 1001.95C316.947 992.253 328.884 983.373 341.251 975.133C366.004 958.693 392.51 944.893 420.052 933.667C447.603 922.453 476.227 913.773 505.463 908.027C534.688 902.253 564.515 899.307 594.375 899.56C595.792 899.573 596.932 900.733 596.92 902.16C596.908 903.573 595.75 904.72 594.331 904.707H594.307H594.284Z"
      fill="#414042"
    />
    <path
      d="M750.153 837.173C778.968 833.387 808.015 831.173 837.085 831.12C866.149 831.053 895.227 833.253 923.893 837.92C952.563 842.573 980.799 849.733 1008.22 859.173C1035.65 868.6 1062.27 880.293 1087.95 893.68C1062.07 880.667 1035.31 869.387 1007.81 860.387C980.32 851.373 952.091 844.667 923.501 840.453C894.913 836.227 865.989 834.48 837.119 834.973C808.243 835.453 779.431 838.08 750.863 842.267C749.46 842.467 748.156 841.493 747.948 840.093C747.743 838.693 748.712 837.387 750.115 837.173H750.153Z"
      fill="#414042"
    />
    <path
      d="M730.143 867.507C759.435 863.653 789.087 862.96 818.483 865.133C847.883 867.307 877.04 872.333 905.449 880.04C933.855 887.747 961.527 898.133 987.873 911.173C1014.21 924.227 1039.24 939.947 1062.05 958.44C1038.97 940.28 1013.76 924.96 987.312 912.333C960.857 899.707 933.153 889.773 904.796 882.52C876.435 875.28 847.405 870.707 818.227 868.973C789.053 867.24 759.717 868.36 730.852 872.587C729.448 872.8 728.144 871.827 727.937 870.427C727.731 869.027 728.701 867.72 730.104 867.507H730.143Z"
      fill="#414042"
    />
    <path
      d="M745.375 899.56C775.235 899.307 805.061 902.253 834.287 908.027C863.523 913.773 892.145 922.453 919.697 933.667C947.24 944.893 973.745 958.693 998.497 975.133C1010.87 983.373 1022.8 992.253 1034.06 1001.95C1045.33 1011.61 1055.96 1022.03 1065.65 1033.27C1055.8 1022.16 1045.03 1011.92 1033.65 1002.43C1022.27 992.933 1010.24 984.24 997.793 976.213C972.887 960.173 946.297 946.827 918.747 936.053C891.188 925.293 862.633 917.093 833.565 911.8C804.505 906.493 774.944 904.027 745.465 904.707H745.456C744.037 904.733 742.863 903.613 742.831 902.187C742.797 900.773 743.92 899.6 745.337 899.56H745.375Z"
      fill="#414042"
    />
    <path
      d="M573.303 465.4C577.789 473.613 570.677 486.133 557.417 493.387C544.159 500.627 529.772 499.853 525.285 491.64C520.8 483.426 527.912 470.893 541.171 463.653C554.431 456.413 568.816 457.187 573.303 465.4Z"
      fill="#A0998F"
    />
    <path
      d="M513.833 508.08C520.214 514.933 503.659 540.733 476.859 565.72C450.057 590.707 423.16 605.426 416.779 598.573C410.4 591.733 426.954 565.933 453.755 540.946C480.555 515.96 507.452 501.24 513.833 508.08Z"
      fill="#A0998F"
    />
  </g>
</svg>