<svg
  width="50"
  height="50"
  viewBox="0 0 1346 1356"
  fill="none"
  xmlns="http://www.w3.org/2000/svg"
>
  <path
    d="M1345.51 677.747C1345.51 1051.97 1044.51 1355.33 673.2 1355.33C301.906 1355.33 0.906494 1051.97 0.906494 677.747C0.906494 303.533 301.906 0.159912 673.2 0.159912C1044.51 0.159912 1345.51 303.533 1345.51 677.747Z"
    fill="#83C6BD"
  />
  <mask
    id="mask0_0_1"
    style="mask-type:luminance"
    maskUnits="userSpaceOnUse"
    x="0"
    y="0"
    width="1346"
    height="1356"
  >
    <path
      d="M1345.51 677.747C1345.51 1051.97 1044.51 1355.33 673.2 1355.33C301.906 1355.33 0.906494 1051.97 0.906494 677.747C0.906494 303.533 301.906 0.159912 673.2 0.159912C1044.51 0.159912 1345.51 303.533 1345.51 677.747Z"
      fill="white"
    />
  </mask>
  <g mask="url(#mask0_0_1)">
    <path
      d="M506.12 1093.65C415.253 1158.69 334.413 1345.47 330.213 1481.85C329.733 1497.61 339.107 1512.16 353.773 1517.95C376.6 1526.96 408.813 1524.87 417.146 1507.15L534.92 1104.91L506.12 1093.65Z"
      fill="#D6A064"
    />
    <path
      d="M824.68 1093.65C915.547 1158.69 996.387 1345.47 1000.59 1481.85C1001.07 1497.61 991.693 1512.16 977.026 1517.95C954.2 1526.96 921.987 1524.87 913.653 1507.15L795.88 1104.91L824.68 1093.65Z"
      fill="#D6A064"
    />
    <path
      d="M823.32 1086.39H507.867C390.88 1217.41 400.32 1566.76 455.507 1719.57C458.787 1728.67 465.16 1736.31 473.56 1741.09C525.453 1770.6 645.467 1769.6 665.6 1722.77C685.72 1769.6 805.733 1770.6 857.626 1741.09C866.026 1736.31 872.4 1728.67 875.693 1719.57C930.866 1566.76 940.307 1217.41 823.32 1086.39Z"
      fill="#D6A064"
    />
    <path
      d="M855.547 1344.24C855.547 1469.21 770.507 1570.53 665.6 1570.53C560.693 1570.53 475.64 1469.21 475.64 1344.24C475.64 1219.25 560.693 1117.93 665.6 1117.93C770.507 1117.93 855.547 1219.25 855.547 1344.24Z"
      fill="#F1C27E"
    />
    <path
      d="M435.146 407.6C422.346 279.587 324.4 222.68 239.107 263.6C197.147 283.747 165.787 320.787 151.573 365.107C123.933 451.307 175.227 522.24 282.747 553.52L435.146 407.6Z"
      fill="#9E693D"
    />
    <path
      d="M325.253 514.493L394.293 445.907C368.12 396.52 339.093 367.56 305.8 369.12C284.147 370.12 265.24 384.027 256.867 404.027C235.853 454.28 272.947 486.72 325.253 514.493Z"
      fill="#EEC27E"
    />
    <path
      d="M373.547 464.04C347.72 406.013 310.093 379.227 257.653 402.253C268.107 380.533 289.6 364.987 320.093 370.36C352.68 376.427 383.933 422.373 393.707 443.013C396.52 448.947 375.333 468.067 373.547 464.04Z"
      fill="#EAB372"
    />
    <path
      d="M243.693 298.253C247.053 302.24 244.587 309.84 238.187 315.226C231.787 320.613 223.88 321.76 220.52 317.773C217.16 313.787 219.64 306.186 226.027 300.8C232.427 295.413 240.347 294.266 243.693 298.253Z"
      fill="#B88653"
    />
    <path
      d="M199.44 361.693C188.32 379.28 175.92 391.414 171.747 388.774C167.573 386.134 173.187 369.733 184.307 352.133C195.413 334.547 207.813 322.427 211.987 325.067C216.173 327.707 210.547 344.107 199.44 361.693Z"
      fill="#B88653"
    />
    <path
      d="M896.333 407.6C909.147 279.587 1007.08 222.68 1092.37 263.6C1134.35 283.747 1165.71 320.787 1179.92 365.107C1207.55 451.307 1156.25 522.24 1048.75 553.52L896.333 407.6Z"
      fill="#9E693D"
    />
    <path
      d="M1006.23 514.493L937.2 445.907C963.36 396.52 992.386 367.56 1025.68 369.12C1047.33 370.12 1066.24 384.027 1074.61 404.027C1095.64 454.28 1058.55 486.72 1006.23 514.493Z"
      fill="#EEC27E"
    />
    <path
      d="M957.947 464.04C983.773 406.013 1021.4 379.227 1073.84 402.253C1063.37 380.533 1041.89 364.987 1011.39 370.36C978.8 376.427 947.56 422.373 937.773 443.013C934.973 448.947 956.147 468.067 957.947 464.04Z"
      fill="#EAB372"
    />
    <path
      d="M1087.79 298.253C1084.44 302.24 1086.91 309.84 1093.31 315.226C1099.71 320.613 1107.61 321.76 1110.96 317.773C1114.32 313.787 1111.85 306.186 1105.45 300.8C1099.05 295.413 1091.15 294.266 1087.79 298.253Z"
      fill="#B88653"
    />
    <path
      d="M1132.05 361.693C1143.16 379.28 1155.56 391.414 1159.73 388.774C1163.92 386.134 1158.29 369.733 1147.17 352.133C1136.07 334.547 1123.67 322.427 1119.49 325.067C1115.32 327.707 1120.93 344.107 1132.05 361.693Z"
      fill="#B88653"
    />
    <path
      d="M1128.03 731.173C1086.52 498.12 888.6 301.88 665.64 301.88C442.693 301.88 244.773 498.12 203.267 731.173C194.48 780.48 197.28 831.267 212.533 878.973C250.04 996.28 351.093 1066.85 504.347 1098.85C606.867 1120.27 712.72 1121.03 815.547 1101.15C975.187 1070.29 1080.32 999.16 1118.76 878.973C1134.01 831.267 1136.8 780.48 1128.03 731.173Z"
      fill="#D6A064"
    />
    <path
      d="M514.146 645.68C514.146 674.707 497.053 698.253 475.973 698.253C454.893 698.253 437.8 674.707 437.8 645.68C437.8 616.64 454.893 593.107 475.973 593.107C497.053 593.107 514.146 616.64 514.146 645.68Z"
      fill="#603912"
    />
    <path
      d="M481 624.88C481 631.813 475.373 637.44 468.426 637.44C461.48 637.44 455.853 631.813 455.853 624.88C455.853 617.933 461.48 612.307 468.426 612.307C475.373 612.307 481 617.933 481 624.88Z"
      fill="white"
    />
    <path
      d="M889.373 645.68C889.373 674.707 872.28 698.253 851.2 698.253C830.12 698.253 813.027 674.707 813.027 645.68C813.027 616.64 830.12 593.107 851.2 593.107C872.28 593.107 889.373 616.64 889.373 645.68Z"
      fill="#603912"
    />
    <path
      d="M856.226 624.88C856.226 631.813 850.6 637.44 843.653 637.44C836.72 637.44 831.093 631.813 831.093 624.88C831.093 617.933 836.72 612.307 843.653 612.307C850.6 612.307 856.226 617.933 856.226 624.88Z"
      fill="white"
    />
    <path
      d="M568.28 360.44C573.027 369.787 564.64 383.574 549.56 391.24C534.48 398.907 518.4 397.547 513.653 388.213C508.907 378.867 517.28 365.08 532.373 357.413C547.453 349.747 563.533 351.107 568.28 360.44Z"
      fill="#F1C27E"
    />
    <path
      d="M501.187 399.307C507.027 408.014 484.12 433.587 450.04 456.44C415.96 479.294 383.6 490.76 377.76 482.067C371.933 473.36 394.827 447.787 428.907 424.933C463 402.08 495.36 390.614 501.187 399.307Z"
      fill="#F1C27E"
    />
    <path
      d="M1117.97 822.4C1079.53 942.6 974.386 1013.73 814.746 1044.59C711.92 1064.45 606.066 1063.71 503.547 1042.29C350.307 1010.29 249.253 939.72 211.733 822.4C205.08 801.573 200.787 780.147 198.813 758.52C195.147 799.067 199.293 840.04 211.733 878.973C249.253 996.28 350.307 1066.85 503.547 1098.85C606.066 1120.27 711.92 1121.03 814.746 1101.15C974.386 1070.29 1079.53 999.16 1117.97 878.973C1130.41 840.04 1134.56 799.067 1130.89 758.52C1128.91 780.147 1124.63 801.573 1117.97 822.4Z"
      fill="#CC9054"
    />
    <path
      d="M970.626 886C970.626 1000.08 834.08 1092.56 665.64 1092.56C497.213 1092.56 360.667 1000.08 360.667 886C360.667 771.92 497.213 679.44 665.64 679.44C834.08 679.44 970.626 771.92 970.626 886Z"
      fill="#F1C27E"
    />
    <path
      d="M665.64 950.613C664.133 950.613 662.907 949.387 662.907 947.867V792.88C662.907 791.373 664.133 790.147 665.64 790.147C667.16 790.147 668.387 791.373 668.387 792.88V947.867C668.387 949.387 667.16 950.613 665.64 950.613Z"
      fill="#603913"
    />
    <path
      d="M610.933 993.627C610.333 993.627 609.72 993.627 609.12 993.6C581.786 992.733 553.4 971.587 552.04 932.88C551.986 931.36 553.173 930.094 554.68 930.04C556.2 929.987 557.466 931.173 557.52 932.68C558.76 968.027 584.506 987.334 609.293 988.12C631.413 988.814 658.733 974.68 662.92 932.507C663.066 931 664.413 929.894 665.92 930.054C667.426 930.2 668.52 931.547 668.373 933.054C666.426 952.68 659.213 968.733 647.52 979.48C637.546 988.64 624.613 993.627 610.933 993.627Z"
      fill="#603913"
    />
    <path
      d="M720.36 993.627C706.666 993.627 693.747 988.64 683.773 979.48C672.08 968.733 664.867 952.68 662.92 933.054C662.76 931.547 663.867 930.2 665.373 930.054C666.88 929.907 668.227 931 668.373 932.507C672.56 974.68 699.893 988.8 722 988.12C746.787 987.334 772.533 968.027 773.773 932.68C773.827 931.173 775.08 929.987 776.6 930.04C778.12 930.094 779.307 931.36 779.253 932.88C777.893 971.587 749.507 992.733 722.173 993.6C721.56 993.627 720.96 993.627 720.36 993.627Z"
      fill="#603913"
    />
    <path
      d="M771.747 686.88C756.2 661.187 714.293 655.734 666.333 655.734C618.36 655.734 576.467 661.187 560.907 686.88C556.6 694.013 556.147 702.867 559.667 710.427C570.027 732.693 588.373 749.147 614.707 774.427C622.507 781.92 631.507 788.08 641.427 792.36C649.933 796.04 658.253 798.027 666.333 797.92C674.413 798.027 682.72 796.04 691.24 792.36C701.16 788.08 710.16 781.92 717.96 774.427C744.293 749.147 762.627 732.693 773 710.427C776.52 702.867 776.067 694.013 771.747 686.88Z"
      fill="#9E693D"
    />
    <path
      d="M675.493 689.84C678.493 701.374 661.2 715.84 636.88 722.147C612.56 728.454 590.427 724.227 587.44 712.694C584.44 701.16 601.733 686.694 626.053 680.387C650.36 674.08 672.506 678.32 675.493 689.84Z"
      fill="#B88653"
    />
  </g>
</svg>