<svg
  width="50"
  height="50"
  viewBox="0 0 1348 1356"
  fill="none"
  xmlns="http://www.w3.org/2000/svg"
>
  <path
    d="M1345.4 677.747C1345.4 1051.97 1044.41 1355.33 673.107 1355.33C301.807 1355.33 0.808105 1051.97 0.808105 677.747C0.808105 303.533 301.807 0.159912 673.107 0.159912C1044.41 0.159912 1345.4 303.533 1345.4 677.747Z"
    fill="#ABD38D"
  />
  <mask
    id="mask0_0_1"
    style="mask-type:luminance"
    maskUnits="userSpaceOnUse"
    x="2"
    y="0"
    width="1346"
    height="1356"
  >
    <path
      d="M1347.45 677.747C1347.45 1051.97 1046.45 1355.33 675.155 1355.33C303.853 1355.33 2.85474 1051.97 2.85474 677.747C2.85474 303.533 303.853 0.159912 675.155 0.159912C1046.45 0.159912 1347.45 303.533 1347.45 677.747Z"
      fill="white"
    />
  </mask>
  <g mask="url(#mask0_0_1)">
    <path
      d="M516.407 1073.2C430.304 1134.83 353.704 1311.8 349.727 1441.04C349.268 1455.97 358.152 1469.76 372.045 1475.24C393.681 1483.79 424.205 1481.79 432.1 1465L543.696 1083.85L516.407 1073.2Z"
      fill="#FFADCB"
    />
    <path
      d="M818.253 1073.2C904.357 1134.83 980.956 1311.8 984.933 1441.04C985.393 1455.97 976.508 1469.76 962.616 1475.24C940.979 1483.79 910.456 1481.79 902.56 1465L790.964 1083.85L818.253 1073.2Z"
      fill="#FFADCB"
    />
    <path
      d="M816.971 1066.31H518.065C407.212 1190.47 416.156 1521.49 468.445 1666.28C471.557 1674.91 477.595 1682.15 485.557 1686.68C534.727 1714.64 648.444 1713.69 667.517 1669.32C686.591 1713.69 800.308 1714.64 849.477 1686.68C857.441 1682.15 863.479 1674.91 866.589 1666.28C918.88 1521.49 927.823 1190.47 816.971 1066.31Z"
      fill="#FFADCB"
    />
    <path
      d="M847.511 1310.64C847.511 1429.07 766.925 1525.07 667.517 1525.07C568.111 1525.07 487.525 1429.07 487.525 1310.64C487.525 1192.2 568.111 1096.2 667.517 1096.2C766.925 1096.2 847.511 1192.2 847.511 1310.64Z"
      fill="#F9CFE3"
    />
    <path
      d="M422.589 260.507C392.925 254.347 324.045 264.867 250.007 242.774C238.105 239.214 219.011 230.467 212.044 239.96C203.043 247.573 213.136 266.027 217.531 277.64C244.855 349.92 239.269 419.373 247.533 448.52C278.351 538.52 423.876 569.16 513.645 524.374L515.004 525.653C515.385 524.8 515.761 523.96 516.129 523.107C516.952 522.68 517.769 522.24 518.583 521.8L517.211 520.547C555.495 427.8 514.548 284.84 422.589 260.507Z"
      fill="#FFADCB"
    />
    <path
      d="M422.095 286.88C396.967 281.667 338.615 290.574 275.896 271.854C265.812 268.84 249.636 261.44 243.735 269.48C236.108 275.933 244.66 291.547 248.383 301.4C271.531 362.627 266.797 421.467 273.8 446.16C299.907 522.387 423.187 548.36 499.235 510.4L500.385 511.493C500.708 510.773 501.025 510.054 501.339 509.334C502.035 508.974 502.728 508.6 503.416 508.227L502.255 507.16C534.687 428.6 500 307.493 422.095 286.88Z"
      fill="#FE93BF"
    />
    <path
      d="M289.013 342.32C288.857 342.32 288.701 342.32 288.545 342.307C282.885 341.893 278.835 334.16 279.497 325.013C280.141 316.12 285.005 309.187 290.477 309.187C290.633 309.187 290.789 309.2 290.945 309.2C296.605 309.613 300.656 317.36 299.992 326.493C299.348 335.387 294.484 342.32 289.013 342.32Z"
      fill="#F9C3DC"
    />
    <path
      d="M317.7 433.773C313.044 433.773 304.243 417.573 297.58 396.467C290.641 374.507 288.648 355.547 293.128 354.133C293.305 354.08 293.492 354.053 293.684 354.053C298.339 354.053 307.14 370.253 313.803 391.347C320.741 413.32 322.735 432.267 318.256 433.68C318.077 433.747 317.892 433.773 317.7 433.773Z"
      fill="#F9C3DC"
    />
    <path
      d="M921.293 260.507C950.956 254.347 1019.84 264.867 1093.88 242.774C1105.77 239.214 1124.87 230.467 1131.84 239.96C1140.84 247.573 1130.75 266.027 1126.35 277.64C1099.03 349.92 1104.61 419.373 1096.35 448.52C1065.53 538.52 920.005 569.16 830.236 524.374L828.877 525.653C828.495 524.8 828.12 523.96 827.752 523.107C826.931 522.68 826.112 522.24 825.301 521.8L826.671 520.547C788.387 427.8 829.333 284.84 921.293 260.507Z"
      fill="#FFADCB"
    />
    <path
      d="M921.787 286.88C946.915 281.667 1005.27 290.574 1067.99 271.854C1078.07 268.84 1094.24 261.44 1100.15 269.48C1107.77 275.933 1099.23 291.547 1095.49 301.4C1072.35 362.627 1077.08 421.467 1070.08 446.16C1043.97 522.387 920.695 548.36 844.647 510.4L843.497 511.493C843.173 510.773 842.856 510.054 842.543 509.334C841.847 508.974 841.155 508.6 840.465 508.227L841.627 507.16C809.195 428.6 843.881 307.493 921.787 286.88Z"
      fill="#FE93BF"
    />
    <path
      d="M1054.87 342.32C1049.4 342.32 1044.53 335.387 1043.89 326.493C1043.23 317.36 1047.28 309.613 1052.93 309.2C1053.09 309.2 1053.25 309.187 1053.4 309.187C1058.88 309.187 1063.73 316.12 1064.39 325.013C1065.05 334.16 1061 341.893 1055.33 342.307C1055.19 342.32 1055.03 342.32 1054.87 342.32Z"
      fill="#F9C3DC"
    />
    <path
      d="M1026.18 433.773C1025.99 433.773 1025.8 433.747 1025.63 433.68C1021.15 432.267 1023.14 413.32 1030.08 391.347C1036.74 370.253 1045.55 354.053 1050.2 354.053C1050.39 354.053 1050.57 354.08 1050.75 354.133C1055.24 355.547 1053.24 374.507 1046.31 396.467C1039.64 417.573 1030.84 433.773 1026.18 433.773Z"
      fill="#F9C3DC"
    />
    <path
      d="M1070.64 692.52C1014.65 490.027 864.372 348.68 668.5 356.467C472.628 348.68 322.348 490.027 266.359 692.52C249.36 754 250.519 819.267 271.047 879.653C306.321 983.427 389.18 1050.33 514.364 1084.43C615.229 1111.89 721.771 1111.89 822.636 1084.43C947.82 1050.33 1030.68 983.427 1065.96 879.653C1086.48 819.267 1087.64 754 1070.64 692.52Z"
      fill="#FFADCB"
    />
    <path
      d="M1065.96 847.827C1030.68 951.6 947.82 1018.49 822.636 1052.59C721.771 1080.07 615.229 1080.07 514.364 1052.59C389.18 1018.49 306.321 951.6 271.047 847.827C262.079 821.44 256.808 794.12 255.133 766.6C252.715 806.987 257.904 847.64 271.047 886.307C306.321 990.093 389.18 1056.99 514.364 1091.08C615.229 1118.55 721.771 1118.55 822.636 1091.08C947.82 1056.99 1030.68 990.093 1065.96 886.307C1079.09 847.64 1084.28 806.987 1081.87 766.6C1080.19 794.12 1074.92 821.44 1065.96 847.827Z"
      fill="#F7A1C4"
    />
    <path
      d="M784.211 771.467C781.579 699.493 740.116 650.013 666.9 642.973C666.299 642.92 665.691 642.893 665.085 642.893H664.908C664.304 642.893 663.696 642.92 663.093 642.973C589.877 650.013 548.416 699.493 545.784 771.467C545.309 784.453 553.373 796.373 565.681 800.52C593.705 809.947 648.185 792.68 664 793.68V793.947C664.304 793.88 664.641 793.827 664.997 793.773C665.353 793.827 665.691 793.88 665.993 793.947V793.68C681.809 792.68 736.289 809.947 764.313 800.52C776.621 796.373 784.685 784.453 784.211 771.467Z"
      fill="#F8D0E3"
    />
    <path
      d="M552.656 612.173C552.656 633.493 540.108 650.773 524.631 650.773C509.152 650.773 496.605 633.493 496.605 612.173C496.605 590.867 509.152 573.573 524.631 573.573C540.108 573.573 552.656 590.867 552.656 612.173Z"
      fill="#603912"
    />
    <path
      d="M528.323 596.907C528.323 602 524.189 606.134 519.092 606.134C513.995 606.134 509.863 602 509.863 596.907C509.863 591.814 513.995 587.68 519.092 587.68C524.189 587.68 528.323 591.814 528.323 596.907Z"
      fill="white"
    />
    <path
      d="M840.395 612.173C840.395 633.493 827.848 650.773 812.371 650.773C796.892 650.773 784.345 633.493 784.345 612.173C784.345 590.867 796.892 573.573 812.371 573.573C827.848 573.573 840.395 590.867 840.395 612.173Z"
      fill="#603912"
    />
    <path
      d="M816.061 596.907C816.061 602 811.929 606.134 806.833 606.134C801.735 606.134 797.603 602 797.603 596.907C797.603 591.814 801.735 587.68 806.833 587.68C811.929 587.68 816.061 591.814 816.061 596.907Z"
      fill="white"
    />
    <path
      d="M664.997 886.707C663.203 886.707 661.748 885.253 661.748 883.467V787.787C661.748 786 663.203 784.547 664.997 784.547C666.792 784.547 668.247 786 668.247 787.787V883.467C668.247 885.253 666.792 886.707 664.997 886.707Z"
      fill="#603913"
    />
    <path
      d="M644.215 900.32C643.085 900.32 641.983 900.227 640.919 900.08C629.517 898.387 617.703 887.893 618.263 871.747C618.325 869.96 619.825 868.56 621.623 868.613C623.416 868.68 624.819 870.187 624.757 871.973C624.328 884.347 633.252 892.373 641.868 893.64C651.265 895.027 658.671 889.093 661.675 877.733C662.135 876 663.912 874.973 665.647 875.427C667.383 875.893 668.416 877.667 667.956 879.4C663.833 894.973 653.241 900.32 644.215 900.32Z"
      fill="#603913"
    />
    <path
      d="M685.599 900.32C676.572 900.32 665.98 894.973 661.857 879.4C661.397 877.667 662.431 875.893 664.167 875.427C665.901 874.973 667.679 876 668.139 877.733C671.143 889.093 678.548 895.027 687.944 893.64C696.56 892.373 705.485 884.347 705.056 871.973C704.993 870.187 706.397 868.68 708.191 868.613C709.987 868.56 711.488 869.96 711.551 871.747C712.111 887.893 700.296 898.387 688.895 900.08C687.832 900.227 686.727 900.32 685.599 900.32Z"
      fill="#603913"
    />
    <path
      d="M784.211 785.6C781.579 713.626 740.116 664.147 666.9 657.107C666.299 657.053 665.691 657.026 665.085 657.026H664.908C664.304 657.026 663.696 657.053 663.093 657.107C589.877 664.147 548.416 713.626 545.784 785.6C545.309 798.586 553.373 810.506 565.681 814.653C593.705 824.08 648.185 806.813 664 807.813V808.08C664.304 808.013 664.641 807.96 664.997 807.907C665.353 807.96 665.691 808.013 665.993 808.08V807.813C681.809 806.813 736.289 824.08 764.313 814.653C776.621 810.506 784.685 798.586 784.211 785.6Z"
      fill="#FC8DBA"
    />
    <path
      d="M625.528 765.426C621.6 785.093 607.5 798.867 594.033 796.173C580.568 793.493 572.835 775.36 576.761 755.693C580.689 736.026 594.789 722.253 608.255 724.947C621.721 727.627 629.455 745.76 625.528 765.426Z"
      fill="#603912"
    />
    <path
      d="M697.432 765.426C701.36 785.093 715.46 798.867 728.925 796.173C742.392 793.493 750.125 775.36 746.197 755.693C742.271 736.026 728.171 722.253 714.705 724.947C701.239 727.627 693.505 745.76 697.432 765.426Z"
      fill="#603912"
    />
    <path
      d="M552.909 434.613C557.181 443.013 549.64 455.426 536.065 462.32C522.492 469.226 508.024 468 503.752 459.6C499.48 451.2 507.021 438.786 520.596 431.893C534.171 424.986 548.637 426.213 552.909 434.613Z"
      fill="#F8CFE3"
    />
    <path
      d="M492.54 469.587C497.791 477.413 477.183 500.44 446.511 521C415.84 541.56 386.72 551.88 381.471 544.053C376.22 536.227 396.828 513.214 427.499 492.64C458.169 472.08 487.289 461.76 492.54 469.587Z"
      fill="#F8CFE3"
    />
  </g>
</svg>