<svg
  width="50"
  height="50"
  viewBox="0 0 1345 1356"
  fill="none"
  xmlns="http://www.w3.org/2000/svg"
>
  <path
    d="M1344.68 678.387C1344.68 1052.6 1043.68 1355.96 672.374 1355.96C301.08 1355.96 0.0800781 1052.6 0.0800781 678.387C0.0800781 304.16 301.08 0.800016 672.374 0.800016C1043.68 0.800016 1344.68 304.16 1344.68 678.387Z"
    fill="#FDBA75"
  />
  <mask
    id="mask0_0_1"
    style="mask-type:luminance"
    maskUnits="userSpaceOnUse"
    x="0"
    y="0"
    width="1345"
    height="1356"
  >
    <path
      d="M1344.68 678.373C1344.68 1052.6 1043.68 1355.96 672.374 1355.96C301.08 1355.96 0.0800781 1052.6 0.0800781 678.373C0.0800781 304.16 301.08 0.800016 672.374 0.800016C1043.68 0.800016 1344.68 304.16 1344.68 678.373Z"
      fill="white"
    />
  </mask>
  <g mask="url(#mask0_0_1)">
    <path
      d="M886.386 1461.55C980.866 1486.05 1071.88 1420.24 1080.53 1354.67C1080.59 1322.25 1090.93 1302.92 1122.4 1310.33C1172.85 1326.8 1178.69 1360.99 1149.83 1398.03C1097.91 1504.64 1005.48 1548.88 882.173 1522.85L886.386 1461.55Z"
      fill="#F7801A"
    />
    <path
      d="M1081.29 1352.92V1334.88C1112.91 1333.21 1141.64 1341.01 1164.29 1368.8C1161.79 1385.88 1153.83 1399.97 1142.28 1412.11C1131.2 1385.27 1113.08 1363.84 1081.29 1352.92Z"
      fill="#5E3811"
    />
    <path
      d="M509.253 990.427C413.613 1058.88 328.533 1255.45 324.107 1399C323.6 1415.59 333.467 1430.91 348.907 1437C372.933 1446.48 406.84 1444.27 415.613 1425.63L539.56 1002.27L509.253 990.427Z"
      fill="#F7801A"
    />
    <path
      d="M333.293 1308.89L328.6 1337.76C354.827 1347.47 381.227 1357.83 395.173 1351.07C396.747 1350.31 397.6 1348.6 397.226 1346.91C393.746 1330.84 360.213 1320.57 333.293 1308.89Z"
      fill="#603912"
    />
    <path
      d="M349.893 1245.01C373.026 1254.99 397.12 1264.57 400.587 1282.25C400.947 1284.05 400.4 1285.96 399.12 1287.27C389.093 1297.43 367.213 1296.01 337.987 1287.43L349.893 1245.01Z"
      fill="#603912"
    />
    <path
      d="M846.92 991.867C942.56 1060.32 1027.64 1256.89 1032.05 1400.45C1032.57 1417.03 1022.71 1432.35 1007.27 1438.44C983.24 1447.93 949.333 1445.72 940.56 1427.07L816.613 1003.71L846.92 991.867Z"
      fill="#F7801A"
    />
    <path
      d="M1022.88 1310.33L1027.57 1339.21C1001.35 1348.91 974.947 1359.27 960.987 1352.51C959.427 1351.75 958.573 1350.05 958.933 1348.36C962.427 1332.28 995.96 1322.03 1022.88 1310.33Z"
      fill="#603912"
    />
    <path
      d="M1006.28 1246.47C983.147 1256.43 959.053 1266.01 955.586 1283.69C955.226 1285.51 955.76 1287.4 957.053 1288.71C967.08 1298.87 988.96 1297.45 1018.19 1288.87L1006.28 1246.47Z"
      fill="#603912"
    />
    <path
      d="M845.986 984.227H513.986C390.853 1122.13 400.786 1489.81 458.866 1650.64C462.32 1660.21 469.026 1668.27 477.866 1673.29C532.493 1704.35 658.8 1703.31 679.986 1654.01C701.173 1703.31 827.48 1704.35 882.093 1673.29C890.946 1668.27 897.653 1660.21 901.106 1650.64C959.186 1489.81 969.119 1122.13 845.986 984.227Z"
      fill="#F7801A"
    />
    <path
      d="M463.133 1068.81L535.613 1133.92L530.2 1185.89L435.813 1161.81C442.64 1129.05 451.506 1097.87 463.133 1068.81Z"
      fill="#603912"
    />
    <path
      d="M430.68 1188.93C441.493 1192.33 503.307 1211.81 503.307 1211.81L426.4 1217L430.68 1188.93Z"
      fill="#603912"
    />
    <path
      d="M421.307 1253.2H529.28V1289.28C487.947 1284.56 453.08 1286.53 417.653 1306.64L421.307 1253.2Z"
      fill="#603912"
    />
    <path
      d="M415.973 1350.09C449.48 1330.52 484.04 1318.6 527.36 1317.2L529.28 1359.53C503.786 1352.56 463.106 1399.19 417.386 1395.09L415.973 1350.09Z"
      fill="#603912"
    />
    <path
      d="M897.027 1070.25L824.547 1135.37L829.96 1187.33L924.347 1163.25C917.52 1130.49 908.64 1099.32 897.027 1070.25Z"
      fill="#603912"
    />
    <path
      d="M929.467 1190.37C918.667 1193.77 856.853 1213.27 856.853 1213.27L933.747 1218.44L929.467 1190.37Z"
      fill="#603912"
    />
    <path
      d="M938.853 1254.64H830.866V1290.73C872.213 1286.01 907.066 1287.97 942.506 1308.09L938.853 1254.64Z"
      fill="#603912"
    />
    <path
      d="M944.186 1351.53C910.679 1331.97 876.106 1320.04 832.8 1318.64L830.866 1360.99C856.373 1354 897.053 1400.63 942.759 1396.53L944.186 1351.53Z"
      fill="#603912"
    />
    <path
      d="M879.186 1216.39C879.186 1369.59 789.68 1493.79 679.266 1493.79C568.84 1493.79 479.333 1369.59 479.333 1216.39C479.333 1063.19 568.84 939 679.266 939C789.68 939 879.186 1063.19 879.186 1216.39Z"
      fill="#FBE4C4"
    />
    <path
      d="M411.467 400.32C406.453 322.573 363.373 277.613 302.733 283.92C290.547 285.187 275.333 288.773 264.52 294.533C208.96 324.16 180.36 369.347 183.08 426.173C183.747 440 187.76 453.52 194.773 465.467C219.813 508.133 265.253 537.133 327.867 552.387L411.467 400.32Z"
      fill="#F7801A"
    />
    <path
      d="M392.947 414.306C389.387 359.12 358.827 327.2 315.787 331.68C307.133 332.586 296.333 335.12 288.653 339.226C249.213 360.24 228.92 392.32 230.853 432.653C231.32 442.466 234.16 452.066 239.147 460.546C256.92 490.826 289.173 511.413 333.613 522.24L392.947 414.306Z"
      fill="#603912"
    />
    <path
      d="M289.547 316.427C290.36 321.427 284.467 326.56 276.387 327.867C268.293 329.187 261.08 326.2 260.267 321.187C259.453 316.187 265.347 311.053 273.427 309.746C281.52 308.426 288.733 311.413 289.547 316.427Z"
      fill="#F8A15F"
    />
    <path
      d="M250.453 325.547C254.72 328.28 249.467 344.053 238.707 360.76C227.96 377.467 215.773 388.787 211.52 386.04C207.253 383.293 212.507 367.52 223.267 350.813C234.013 334.106 246.187 322.8 250.453 325.547Z"
      fill="#F8A15F"
    />
    <path
      d="M901.56 409.88C906.573 332.133 949.653 287.16 1010.28 293.48C1022.48 294.747 1037.68 298.32 1048.49 304.093C1104.07 333.72 1132.65 378.893 1129.95 435.72C1129.28 449.56 1125.27 463.08 1118.25 475.013C1093.2 517.693 1047.77 546.68 985.16 561.947L901.56 409.88Z"
      fill="#F7801A"
    />
    <path
      d="M920.066 423.853C923.626 368.68 954.2 336.76 997.24 341.24C1005.89 342.133 1016.69 344.68 1024.37 348.773C1063.81 369.8 1084.11 401.866 1082.17 442.2C1081.71 452.026 1078.85 461.613 1073.88 470.093C1056.09 500.386 1023.85 520.96 979.413 531.8L920.066 423.853Z"
      fill="#603912"
    />
    <path
      d="M1023.48 325.973C1022.67 330.987 1028.56 336.107 1036.64 337.427C1044.73 338.747 1051.95 335.76 1052.76 330.747C1053.57 325.747 1047.68 320.613 1039.6 319.293C1031.51 317.973 1024.29 320.973 1023.48 325.973Z"
      fill="#F8A15F"
    />
    <path
      d="M1062.56 335.093C1058.31 337.84 1063.56 353.613 1074.32 370.32C1085.07 387.026 1097.24 398.333 1101.51 395.586C1105.77 392.84 1100.51 377.08 1089.76 360.373C1079 343.666 1066.83 332.346 1062.56 335.093Z"
      fill="#F8A15F"
    />
    <path
      d="M1057.83 607.333C928.84 430.573 983.693 249.053 669.613 249.053C355.546 249.053 410.386 430.573 281.413 607.333C88.0529 857.8 406.88 1014.96 669.613 1020.75C932.36 1014.96 1251.19 857.8 1057.83 607.333Z"
      fill="#F7801A"
    />
    <path
      d="M1098.4 668.147C1102.15 771.08 1027.21 846.707 931.04 826.693C906.547 821.6 884.373 808.907 866.853 791.053C821.253 744.6 755.827 718.907 667.107 717.547C578.4 718.907 512.96 744.6 467.373 791.053C449.853 808.907 427.68 821.6 403.187 826.693C307 846.707 236.08 776.08 239.826 673.147C161.52 851.107 331.813 1009.41 667.107 1024.08C1006.84 1012.69 1182.77 849.973 1098.4 668.147Z"
      fill="#FBE4C4"
    />
    <path
      d="M666.574 983.787C398.987 972.08 236.494 868.893 221.574 737.24C205.04 887.627 372.214 1011.2 666.574 1024.08C962.734 1014.16 1134.4 889.227 1117.67 736.88C1102.59 870.427 936.147 974.747 666.574 983.787Z"
      fill="#EFD4B4"
    />
    <path
      d="M517.52 602.387C517.52 630.613 500.906 653.507 480.4 653.507C459.906 653.507 443.293 630.613 443.293 602.387C443.293 574.147 459.906 551.267 480.4 551.267C500.906 551.267 517.52 574.147 517.52 602.387Z"
      fill="#603912"
    />
    <path
      d="M485.293 582.16C485.293 588.907 479.826 594.387 473.066 594.387C466.32 594.387 460.84 588.907 460.84 582.16C460.84 575.4 466.32 569.933 473.066 569.933C479.826 569.933 485.293 575.4 485.293 582.16Z"
      fill="white"
    />
    <path
      d="M902.867 602.387C902.867 630.613 886.253 653.507 865.747 653.507C845.253 653.507 828.626 630.613 828.626 602.387C828.626 574.147 845.253 551.267 865.747 551.267C886.253 551.267 902.867 574.147 902.867 602.387Z"
      fill="#603912"
    />
    <path
      d="M870.64 582.16C870.64 588.907 865.174 594.387 858.414 594.387C851.667 594.387 846.187 588.907 846.187 582.16C846.187 575.4 851.667 569.933 858.414 569.933C865.174 569.933 870.64 575.4 870.64 582.16Z"
      fill="white"
    />
    <path
      d="M731.053 683.853C756.666 672.48 772.773 650.427 782.533 621.227C787.88 629.093 782.72 691.987 766.106 715.08L731.053 683.853Z"
      fill="#E56325"
    />
    <path
      d="M673.08 875.8C671.28 875.8 669.826 874.346 669.826 872.56V720.64C669.826 718.853 671.28 717.4 673.08 717.4C674.866 717.4 676.319 718.853 676.319 720.64V872.56C676.319 874.346 674.866 875.8 673.08 875.8Z"
      fill="#603913"
    />
    <path
      d="M640.293 897.427C638.573 897.427 636.853 897.293 635.12 897.04C617.84 894.48 599.933 878.547 600.786 854.027C600.84 852.24 602.346 850.84 604.146 850.893C605.933 850.96 607.333 852.467 607.279 854.253C606.559 875 621.573 888.466 636.079 890.613C648.413 892.44 663.706 886.387 669.653 863.96C670.106 862.227 671.893 861.186 673.626 861.64C675.359 862.106 676.386 863.88 675.933 865.613C672.893 877.106 667.173 886.04 659.399 891.466C653.813 895.373 647.173 897.413 640.293 897.427Z"
      fill="#603913"
    />
    <path
      d="M705.573 897.427C698.693 897.427 692.053 895.373 686.467 891.466C678.693 886.04 672.973 877.106 669.933 865.613C669.48 863.88 670.506 862.106 672.253 861.64C673.973 861.186 675.76 862.227 676.213 863.96C682.16 886.387 697.453 892.44 709.8 890.613C724.293 888.466 739.32 875 738.6 854.253C738.533 852.467 739.933 850.96 741.72 850.893C743.533 850.84 745.027 852.24 745.08 854.027C745.933 878.547 728.027 894.48 710.747 897.04C709.013 897.293 707.293 897.427 705.573 897.427Z"
      fill="#603913"
    />
    <path
      d="M765.106 704.667C750.893 681.453 712.88 676.72 669.413 676.946C625.933 677.173 587.986 682.307 574.013 705.667C570.133 712.16 569.773 720.187 573 727.027C582.493 747.16 599.2 761.986 623.186 784.773C630.28 791.52 638.48 797.067 647.493 800.893C655.213 804.187 662.76 805.946 670.08 805.813C677.4 805.88 684.933 804.027 692.626 800.667C701.6 796.733 709.733 791.106 716.76 784.28C740.506 761.24 757.053 746.24 766.347 726.013C769.493 719.146 769.053 711.12 765.106 704.667Z"
      fill="#603912"
    />
    <path
      d="M678.053 707.867C680.76 718.32 665.093 731.427 643.053 737.147C621.013 742.853 600.947 739.027 598.24 728.573C595.533 718.12 611.2 705.013 633.24 699.293C655.28 693.573 675.346 697.413 678.053 707.867Z"
      fill="#8F6736"
    />
    <path
      d="M664.347 270C621.107 310.76 414.106 269.227 383.8 499.587C453.6 324.693 576.706 374.613 665.6 319.827C668.066 318.307 671.173 318.307 673.64 319.827C762.533 374.613 885.64 324.693 955.44 499.587C925.133 269.227 718.133 310.76 674.893 270C671.92 267.2 667.32 267.2 664.347 270Z"
      fill="#613912"
    />
    <path
      d="M663.36 364.387C611.893 439.067 479.147 434.333 462.613 496.133C531.667 450.093 608.6 487.6 663.493 412.506C666.52 408.373 672.72 408.373 675.733 412.506C730.64 487.6 807.573 450.093 876.627 496.133C860.093 434.333 727.347 439.067 675.88 364.387C672.854 360.013 666.373 360.013 663.36 364.387Z"
      fill="#613912"
    />
  </g>
</svg>